<svg width="26" height="30" version="1.1" xmlns="http://www.w3.org/2000/svg">
  <polygon points="0,2 2,2 2,28 20,28 20,30 0,30 0,2" fill="#021534" />
  <polygon points="10,4 18,4 18,12 16,12 16,6 10,6 10,4" fill="#021534" />
  <polygon points="10,16 18,16 18,24 16,24 16,18 10,18 10,16" fill="#021534" />
  <rect x="22" y="12" width="2" height="2" fill="#021534" />
  <rect x="22" y="24" width="2" height="2" fill="#021534" />
  <polygon points="4,0 22,0 22,2 4,2 4,0" fill="#4b1faa" />
  <polygon points="2,0 4,0 4,2 6,2 6,0 8,0 8,2 10,2 10,0 12,0 12,2 14,2 14,0 16,0 16,2 18,2 18,0 20,0 20,2 22,2 22,4 26,4 26,6 18,6 18,4 10,4 10,6 2,6 2,0" fill="#8939cf" />
  <polygon points="2,4 4,4 4,6 6,6 6,4 8,4 8,6 10,6 10,10 8,10 8,8 6,8 6,10 4,10 4,8 2,8 2,4" fill="#ab62ec" />
  <polygon points="18,4 20,4 20,6 22,6 22,4 24,4 24,6 26,6 26,10 24,10 24,8 22,8 22,10 20,10 20,8 18,8 18,4" fill="#ab62ec" />
  <polygon points="2,12 22,12 22,16 2,16 2,12" fill="#ec62e1" />
  <polygon points="2,16 10,16 10,24 18,24 18,16 26,16 26,24 22,24 22,28 2,28 2,16" fill="#ec62e1" />
  <polygon points="2,8 4,8 4,10 6,10 6,8 8,8 8,10 10,10 10,14 8,14 8,12 6,12 6,14 4,14 4,12 2,12 2,8" fill="#d162ec" />
  <polygon points="18,8 20,8 20,10 22,10 22,8 24,8 24,10 26,10 26,12 22,12 22,14 20,14 20,12 18,12 18,8" fill="#d162ec" />
  <rect x="12" y="12" width="2" height="2" fill="#d162ec" />
  <rect x="16" y="12" width="2" height="2" fill="#d162ec" />
  <rect x="4" y="16" width="2" height="2" fill="#ff9cf7" />
  <rect x="8" y="16" width="2" height="2" fill="#ff9cf7" />
  <rect x="20" y="16" width="2" height="2" fill="#ff9cf7" />
  <rect x="24" y="16" width="2" height="2" fill="#ff9cf7" />
  <rect x="2" y="18" width="2" height="2" fill="#ff9cf7" />
  <rect x="6" y="18" width="2" height="2" fill="#ff9cf7" />
  <rect x="18" y="18" width="2" height="2" fill="#ff9cf7" />
  <rect x="22" y="18" width="2" height="2" fill="#ff9cf7" />
  <rect x="4" y="20" width="2" height="2" fill="#ff9cf7" />
  <rect x="8" y="20" width="2" height="2" fill="#ffb9f9" />
  <rect x="20" y="20" width="2" height="2" fill="#ff9cf7" />
  <rect x="24" y="20" width="2" height="2" fill="#ffb9f9" />
  <rect x="2" y="22" width="2" height="2" fill="#ffb9f9" />
  <rect x="6" y="22" width="2" height="2" fill="#ffb9f9" />
  <rect x="18" y="22" width="2" height="2" fill="#ffb9f9" />
  <rect x="22" y="22" width="2" height="2" fill="#ffb9f9" />
  <rect x="4" y="24" width="2" height="2" fill="#ffdafc" />
  <rect x="8" y="24" width="2" height="2" fill="#ffdafc" />
  <rect x="12" y="24" width="2" height="2" fill="#ffdafc" />
  <rect x="16" y="24" width="2" height="2" fill="#ffdafc" />
  <rect x="20" y="24" width="2" height="2" fill="#ffdafc" />
</svg>
